<?xml version="1.0" encoding="UTF-8"?>
<svg version="1.1" xmlns="http://www.w3.org/2000/svg" width="246" height="74">
<path d="M0 0 C81.18 0 162.36 0 246 0 C246 24.42 246 48.84 246 74 C164.82 74 83.64 74 0 74 C0 49.58 0 25.16 0 0 Z " fill="#29154A" transform="translate(0,0)"/>
<path d="M0 0 C2.875 2.25 2.875 2.25 5 5 C5.763125 5.763125 6.52625 6.52625 7.3125 7.3125 C7.869375 7.869375 8.42625 8.42625 9 9 C9.63228516 8.15115234 9.63228516 8.15115234 10.27734375 7.28515625 C10.82519531 6.55167969 11.37304688 5.81820313 11.9375 5.0625 C12.48277344 4.33160156 13.02804688 3.60070312 13.58984375 2.84765625 C15 1 15 1 16 0 C18.1796875 -0.203125 18.1796875 -0.203125 20.875 -0.25 C22.20144531 -0.28867188 22.20144531 -0.28867188 23.5546875 -0.328125 C26 0 26 0 27.77734375 1.15234375 C30.02614426 4.55069085 29.69912017 8.07506597 29.63671875 12.03515625 C28.87055741 15.60274189 27.8995116 16.61000649 25 18.75 C23.69062327 19.54108177 22.36338782 20.30613299 21 21 C22.9557376 23.02558537 24.6860156 24.81253797 27.11328125 26.26171875 C29 28 29 28 29.49609375 30.8125 C29.47675781 31.864375 29.45742188 32.91625 29.4375 34 C29.43621094 35.051875 29.43492188 36.10375 29.43359375 37.1875 C29 40 29 40 27.74609375 41.84375 C24.42821457 44.04082435 20.80142191 43.72408036 17 43 C14.1875 40.75 14.1875 40.75 12 38 C11.236875 37.236875 10.47375 36.47375 9.6875 35.6875 C9.130625 35.130625 8.57375 34.57375 8 34 C7.59007813 34.56589844 7.18015625 35.13179687 6.7578125 35.71484375 C6.21898438 36.44832031 5.68015625 37.18179688 5.125 37.9375 C4.59132813 38.66839844 4.05765625 39.39929687 3.5078125 40.15234375 C1.7358718 42.32365969 0.74950626 42.91173768 -2.0234375 43.23828125 C-5.75027789 43.35590578 -8.26241712 43.41376601 -11.5625 41.5625 C-13.71369576 37.72775973 -13.76170576 34.29325064 -13 30 C-10.68444053 26.14073422 -7.58059729 23.68544797 -4 21 C-4.56589844 20.59007813 -5.13179687 20.18015625 -5.71484375 19.7578125 C-6.44832031 19.21898438 -7.18179687 18.68015625 -7.9375 18.125 C-8.66839844 17.59132813 -9.39929688 17.05765625 -10.15234375 16.5078125 C-12 15 -12 15 -13 13 C-13.14640501 11.35857459 -13.22096589 9.7101859 -13.25 8.0625 C-13.27578125 7.18722656 -13.3015625 6.31195312 -13.328125 5.41015625 C-13 3 -13 3 -11.7890625 1.21484375 C-8.2540263 -1.18558476 -4.0704574 -0.70450224 0 0 Z " fill="#C456F1" transform="translate(26,12)"/>
<path d="M0 0 C2.64752004 2.57784846 4.94432065 4.91648098 7 8 C11.11806543 9.37268848 14.98032993 9.57704859 19.1875 8.375 C21.83337101 6.36778751 23.28873156 3.81136958 25 1 C27.475 1.495 27.475 1.495 30 2 C29.875 4.25 29.875 4.25 29 7 C26 9.1875 26 9.1875 23 11 C21.14169501 14.71660998 21.53075567 19.31072041 22.625 23.25 C24.65594557 25.83483981 27.21566525 27.30518754 30 29 C29.67 30.65 29.34 32.3 29 34 C26.75 33.875 26.75 33.875 24 33 C21.8125 30 21.8125 30 20 27 C16.52357967 25.26178984 12.79280686 25.40737393 9 26 C6.10387764 28.14606522 6.10387764 28.14606522 4 31 C2.66666667 32.33333333 1.33333333 33.66666667 0 35 C-2 33.6875 -2 33.6875 -4 32 C-4 31.01 -4 30.02 -4 29 C0.22222222 26 0.22222222 26 3 26 C4.85704564 21.12525521 5.87812089 16.98561101 4.375 11.875 C2.39028085 9.1685648 -0.16042697 7.72843576 -3 6 C-2.625 3.5625 -2.625 3.5625 -2 1 C-1.34 0.67 -0.68 0.34 0 0 Z " fill="#2B164C" transform="translate(21,16)"/>
<path d="M0 0 C1.98828125 0.37109375 1.98828125 0.37109375 3.98828125 2.37109375 C4.50390625 2.04109375 5.01953125 1.71109375 5.55078125 1.37109375 C8.76854637 0.05098498 11.54533405 0.2386727 14.98828125 0.37109375 C14.98828125 1.36109375 14.98828125 2.35109375 14.98828125 3.37109375 C13.00828125 3.37109375 11.02828125 3.37109375 8.98828125 3.37109375 C8.98828125 4.36109375 8.98828125 5.35109375 8.98828125 6.37109375 C9.95765625 6.68046875 10.92703125 6.98984375 11.92578125 7.30859375 C14.98828125 8.37109375 14.98828125 8.37109375 15.98828125 9.37109375 C16.17578125 11.80859375 16.17578125 11.80859375 15.98828125 14.37109375 C13.98828125 16.37109375 13.98828125 16.37109375 10.05078125 16.55859375 C7.3119197 16.53299691 5.64820593 16.25773531 2.98828125 15.37109375 C2.65828125 15.70109375 2.32828125 16.03109375 1.98828125 16.37109375 C-2.79909481 17.06348285 -6.0392013 17.04590178 -10.07421875 14.24609375 C-12.01171875 11.37109375 -12.01171875 11.37109375 -12.63671875 8.37109375 C-11.13106102 1.14393666 -6.62146235 -0.18918464 0 0 Z " fill="#301B4F" transform="translate(213.01171875,26.62890625)"/>
<path d="M0 0 C2.9375 1.5 2.9375 1.5 5 4 C5.65466318 6.80241781 5.61113838 9.19222271 5 12 C2.88915485 15.29291844 1.35652858 15.88775952 -2.375 17.0625 C-6 17 -6 17 -9.4375 15 C-12 12 -12 12 -12.6875 8.5 C-11.27539313 1.31109229 -7.07469995 -1.13700535 0 0 Z " fill="#E9EAEA" transform="translate(106,27)"/>
<path d="M0 0 C1.0209375 0.00193359 1.0209375 0.00193359 2.0625 0.00390625 C4.67080269 0.58761915 5.50981639 1.20453138 7 3.4375 C7.29296875 6.57421875 7.29296875 6.57421875 7.1875 10.125 C7.16042969 11.30449219 7.13335937 12.48398437 7.10546875 13.69921875 C7.07066406 14.60285156 7.03585938 15.50648437 7 16.4375 C6.01 16.4375 5.02 16.4375 4 16.4375 C4 15.1175 4 13.7975 4 12.4375 C1.69 12.4375 -0.62 12.4375 -3 12.4375 C-3 13.7575 -3 15.0775 -3 16.4375 C-4.32 16.4375 -5.64 16.4375 -7 16.4375 C-7.08133791 14.52154032 -7.13934367 12.60458068 -7.1875 10.6875 C-7.22230469 9.62015625 -7.25710937 8.5528125 -7.29296875 7.453125 C-6.82167998 2.60199256 -5.08068185 -0.14433755 0 0 Z " fill="#F2F0EC" transform="translate(137,26.5625)"/>
<path d="M0 0 C7.875 0 7.875 0 11 2 C11.125 8.625 11.125 8.625 10 12 C10.66 12.33 11.32 12.66 12 13 C12 13.99 12 14.98 12 16 C9.5625 15.625 9.5625 15.625 7 15 C6.67 14.34 6.34 13.68 6 13 C5.01 12.67 4.02 12.34 3 12 C3 13.32 3 14.64 3 16 C2.01 16 1.02 16 0 16 C0 10.72 0 5.44 0 0 Z " fill="#F5F3F2" transform="translate(115,27)"/>
<path d="M0 0 C4.44995051 2.22497525 6.60084691 4.44633995 10 8 C10.33 5.36 10.66 2.72 11 0 C11.99 0 12.98 0 14 0 C14 5.28 14 10.56 14 16 C10.09567131 14.04783565 7.96160056 12.12613393 5 9 C4.67 11.31 4.34 13.62 4 16 C2.68 16 1.36 16 0 16 C0 10.72 0 5.44 0 0 Z " fill="#E9ECE8" transform="translate(148,27)"/>
<path d="M0 0 C3.63 0 7.26 0 11 0 C11 0.99 11 1.98 11 3 C8.69 3 6.38 3 4 3 C4 4.32 4 5.64 4 7 C5.98 7 7.96 7 10 7 C10 7.99 10 8.98 10 10 C8.02 10 6.04 10 4 10 C4 10.99 4 11.98 4 13 C6.31 13 8.62 13 11 13 C11 13.99 11 14.98 11 16 C7.37 16 3.74 16 0 16 C0 10.72 0 5.44 0 0 Z " fill="#ECEBE8" transform="translate(166,27)"/>
<path d="M0 0 C0 0.99 0 1.98 0 3 C-4.455 3.495 -4.455 3.495 -9 4 C-9.16681109 6.91652174 -9.16681109 6.91652174 -9 10 C-7.23863645 12.18331689 -7.23863645 12.18331689 -5.0546875 12.1953125 C-2.02734375 12.09765625 -2.02734375 12.09765625 1 12 C0.67 13.32 0.34 14.64 0 16 C-4.84435994 16.47493725 -7.9563259 16.72418203 -12.0625 13.875 C-14 11 -14 11 -14.625 8 C-12.90624488 -0.25002459 -7.17549203 -0.70347961 0 0 Z " fill="#DDE2E9" transform="translate(215,27)"/>
<path d="M0 0 C0 0.99 0 1.98 0 3 C-4.455 3.495 -4.455 3.495 -9 4 C-9.16681109 6.91652174 -9.16681109 6.91652174 -9 10 C-7.23863645 12.18331689 -7.23863645 12.18331689 -5.0546875 12.1953125 C-2.02734375 12.09765625 -2.02734375 12.09765625 1 12 C0.67 13.32 0.34 14.64 0 16 C-4.84435994 16.47493725 -7.9563259 16.72418203 -12.0625 13.875 C-14 11 -14 11 -14.625 8 C-12.90624488 -0.25002459 -7.17549203 -0.70347961 0 0 Z " fill="#DDE2E9" transform="translate(91,27)"/>
<path d="M0 0 C0 0.99 0 1.98 0 3 C-1.98 3 -3.96 3 -6 3 C-6 3.99 -6 4.98 -6 6 C-5.030625 6.309375 -4.06125 6.61875 -3.0625 6.9375 C0 8 0 8 1 9 C1.1875 11.4375 1.1875 11.4375 1 14 C-1 16 -1 16 -2.9453125 16.1953125 C-4.96354167 16.13020833 -6.98177083 16.06510417 -9 16 C-9.33 14.68 -9.66 13.36 -10 12 C-7.69 12.33 -5.38 12.66 -3 13 C-3.68856935 9.80286642 -3.68856935 9.80286642 -6.5 8.625 C-9 7 -9 7 -9.8125 4.3125 C-9.9053125 3.1678125 -9.9053125 3.1678125 -10 2 C-6.3558226 -0.4294516 -4.28758728 -0.16179575 0 0 Z " fill="#E4E9ED" transform="translate(228,27)"/>
<path d="M0 0 C2.5625 0.3125 2.5625 0.3125 4.4375 1.4375 C5.5625 3.3125 5.5625 3.3125 5.4375 6.375 C4.5625 9.3125 4.5625 9.3125 1.5625 11.3125 C-1.39826291 10.95361965 -2.28408021 10.46591979 -4.4375 8.3125 C-4.6875 5.3125 -4.6875 5.3125 -4.4375 2.3125 C-2.4375 0.3125 -2.4375 0.3125 0 0 Z " fill="#2D1E54" transform="translate(102.4375,29.6875)"/>
<path d="M0 0 C4.62 0 9.24 0 14 0 C14 0.99 14 1.98 14 3 C12.02 3 10.04 3 8 3 C8 7.29 8 11.58 8 16 C7.01 16 6.02 16 5 16 C5 11.71 5 7.42 5 3 C3.35 3 1.7 3 0 3 C0 2.01 0 1.02 0 0 Z " fill="#F1F4F1" transform="translate(179,27)"/>
<path d="M0 0 C3.19267711 0.31002146 4.61339633 0.57146535 6.80078125 2.99609375 C7.29964844 3.80175781 7.79851563 4.60742188 8.3125 5.4375 C8.82425781 6.24058594 9.33601563 7.04367188 9.86328125 7.87109375 C11 10 11 10 11 12 C4.60344828 12.48275862 4.60344828 12.48275862 2.125 10.5 C0.54755736 6.99457192 0.31908356 3.82900271 0 0 Z " fill="#C055F4" transform="translate(24,13)"/>
<path d="M0 0 C1.58502671 3.17005342 1.60385067 6.49124878 2 10 C-2.10457614 12.98514628 -4.97745369 13.2954439 -10 13 C-8.68 12.67 -7.36 12.34 -6 12 C-6.33 11.01 -6.66 10.02 -7 9 C-5.56640625 6.73828125 -5.56640625 6.73828125 -3.5625 4.3125 C-2.90378906 3.50425781 -2.24507812 2.69601563 -1.56640625 1.86328125 C-1.04949219 1.24839844 -0.53257813 0.63351562 0 0 Z " fill="#BE55F5" transform="translate(41,13)"/>
<path d="M0 0 C1.4540625 0.0309375 1.4540625 0.0309375 2.9375 0.0625 C2.6075 0.7225 2.2775 1.3825 1.9375 2.0625 C1.2775 2.0625 0.6175 2.0625 -0.0625 2.0625 C0.453125 2.990625 0.96875 3.91875 1.5 4.875 C2.9375 8.0625 2.9375 8.0625 1.9375 11.0625 C-0.5 10.6875 -0.5 10.6875 -3.0625 10.0625 C-4.55356457 7.08037087 -4.18191467 4.34640342 -4.0625 1.0625 C-3.0625 0.0625 -3.0625 0.0625 0 0 Z " fill="#E862F4" transform="translate(17.0625,42.9375)"/>
<path d="M0 0 C2.64 0.33 5.28 0.66 8 1 C8 4.63 8 8.26 8 12 C7.01 12.33 6.02 12.66 5 13 C5 10.36 5 7.72 5 5 C2.525 4.01 2.525 4.01 0 3 C0 2.01 0 1.02 0 0 Z " fill="#E562F6" transform="translate(47,40)"/>
<path d="M0 0 C4.88755495 0.28750323 8.37954331 2.91165654 12 6 C12 6.33 12 6.66 12 7 C8.33333333 7 4.66666667 7 1 7 C0.34 5.02 -0.32 3.04 -1 1 C-0.67 0.67 -0.34 0.34 0 0 Z " fill="#BD55F1" transform="translate(43,34)"/>
<path d="M0 0 C1.21236328 0.04060547 1.21236328 0.04060547 2.44921875 0.08203125 C3.06410156 0.11683594 3.67898437 0.15164062 4.3125 0.1875 C4.3125 1.1775 4.3125 2.1675 4.3125 3.1875 C-0.1425 3.6825 -0.1425 3.6825 -4.6875 4.1875 C-5.0175 5.8375 -5.3475 7.4875 -5.6875 9.1875 C-6.6775 8.5275 -7.6675 7.8675 -8.6875 7.1875 C-7.75422802 1.77452251 -5.49696006 -0.23899826 0 0 Z " fill="#EFEBED" transform="translate(210.6875,26.8125)"/>
<path d="M0 0 C0.99 0 1.98 0 3 0 C3 5.28 3 10.56 3 16 C2.01 16 1.02 16 0 16 C0 10.72 0 5.44 0 0 Z " fill="#FFFAEF" transform="translate(195,27)"/>
<path d="M0 0 C1.21236328 0.04060547 1.21236328 0.04060547 2.44921875 0.08203125 C3.06410156 0.11683594 3.67898437 0.15164062 4.3125 0.1875 C4.3125 1.1775 4.3125 2.1675 4.3125 3.1875 C-0.1425 3.6825 -0.1425 3.6825 -4.6875 4.1875 C-5.0175 5.8375 -5.3475 7.4875 -5.6875 9.1875 C-6.6775 8.5275 -7.6675 7.8675 -8.6875 7.1875 C-7.75422802 1.77452251 -5.49696006 -0.23899826 0 0 Z " fill="#EFEBED" transform="translate(86.6875,26.8125)"/>
<path d="M0 0 C2.31 0 4.62 0 7 0 C6.21516341 1.48280196 5.42190666 2.9611498 4.625 4.4375 C4.18414062 5.26121094 3.74328125 6.08492187 3.2890625 6.93359375 C2 9 2 9 0 10 C-1.125 3.375 -1.125 3.375 0 0 Z " fill="#D05AF1" transform="translate(42,12)"/>
<path d="M0 0 C1.32 0 2.64 0 4 0 C4 2.31 4 4.62 4 7 C3.01 7.495 3.01 7.495 2 8 C2 7.34 2 6.68 2 6 C0.3603125 6.2475 0.3603125 6.2475 -1.3125 6.5 C-5 7 -5 7 -8 7 C-7.50628906 6.66226562 -7.01257812 6.32453125 -6.50390625 5.9765625 C-5.86324219 5.53054687 -5.22257812 5.08453125 -4.5625 4.625 C-3.92441406 4.18414063 -3.28632812 3.74328125 -2.62890625 3.2890625 C-0.86259072 2.07839147 -0.86259072 2.07839147 0 0 Z " fill="#B150EE" transform="translate(51,20)"/>
<path d="M0 0 C1.67542976 0.28604898 3.34385343 0.61781233 5 1 C5 2.98 5 4.96 5 7 C3.02 7 1.04 7 -1 7 C-1.04254356 5.00045254 -1.04080783 2.99958364 -1 1 C-0.67 0.67 -0.34 0.34 0 0 Z " fill="#2D164B" transform="translate(135,30)"/>
<path d="M0 0 C3.1875 0.875 3.1875 0.875 6 2 C6 3.98 6 5.96 6 8 C2.06326356 6.68775452 -0.22719294 5.08089673 -3 2 C-2.01 1.34 -1.02 0.68 0 0 Z " fill="#D25CF4" transform="translate(20,26)"/>
<path d="M0 0 C3.3 0 6.6 0 10 0 C9.01 0.495 9.01 0.495 8 1 C8.33 3.31 8.66 5.62 9 8 C8.401875 7.484375 7.80375 6.96875 7.1875 6.4375 C6.465625 5.963125 5.74375 5.48875 5 5 C4.01 5.33 3.02 5.66 2 6 C2 4.35 2 2.7 2 1 C1.34 0.67 0.68 0.34 0 0 Z " fill="#AD50F3" transform="translate(16,12)"/>
<path d="M0 0 C0.66 0 1.32 0 2 0 C1.690625 0.5775 1.38125 1.155 1.0625 1.75 C0.07416636 3.84294184 -0.5168613 5.74535275 -1 8 C-0.01 7.67 0.98 7.34 2 7 C2.33 7.66 2.66 8.32 3 9 C0.59454362 10.20272819 -0.94996953 10.10071472 -3.625 10.0625 C-4.85089844 10.04896484 -4.85089844 10.04896484 -6.1015625 10.03515625 C-7.04128906 10.01775391 -7.04128906 10.01775391 -8 10 C-7.34 9.67 -6.68 9.34 -6 9 C-5.34786708 6.97536745 -5.34786708 6.97536745 -5 5 C-4.34 5 -3.68 5 -3 5 C-2.505 4.175 -2.01 3.35 -1.5 2.5 C-1.005 1.675 -0.51 0.85 0 0 Z " fill="#A94CEF" transform="translate(25,45)"/>
<path d="M0 0 C-1.3937282 4.43458973 -3.60582235 6.87378374 -7 10 C-7.36426713 3.56461405 -7.36426713 3.56461405 -5.75 1.0625 C-4 0 -4 0 0 0 Z " fill="#DC5DF4" transform="translate(36,41)"/>
<path d="M0 0 C6.75 0.75 6.75 0.75 9 3 C9.125 5.625 9.125 5.625 9 8 C8.278125 7.360625 7.55625 6.72125 6.8125 6.0625 C4.01808816 4.01326465 2.38336726 3.38667054 -1 3 C-0.67 2.01 -0.34 1.02 0 0 Z " fill="#EFF1F4" transform="translate(101,27)"/>
<path d="M0 0 C0.33 0 0.66 0 1 0 C0.67 2.97 0.34 5.94 0 9 C-2.97 8.67 -5.94 8.34 -9 8 C-4.25 4.125 -4.25 4.125 -2 3 C-1.34 3.33 -0.68 3.66 0 4 C0 2.68 0 1.36 0 0 Z " fill="#AE4DE9" transform="translate(26,30)"/>
<path d="M0 0 C0.99 0 1.98 0 3 0 C3 5.28 3 10.56 3 16 C2.67 16 2.34 16 2 16 C1.67 14.02 1.34 12.04 1 10 C0.67 10 0.34 10 0 10 C0 6.7 0 3.4 0 0 Z " fill="#FAFEF1" transform="translate(159,27)"/>
<path d="M0 0 C5.57142857 5.14285714 5.57142857 5.14285714 6 9 C4.33388095 9.042721 2.66617115 9.04063832 1 9 C0 8 0 8 -0.09765625 6.15234375 C-0.06510417 4.1015625 -0.03255208 2.05078125 0 0 Z " fill="#DE5FF5" transform="translate(29,16)"/>
<path d="M0 0 C0.99 0 1.98 0 3 0 C3.125 2.875 3.125 2.875 3 6 C2.34 6.66 1.68 7.32 1 8 C0.01 7.34 -0.98 6.68 -2 6 C-1.125 1.125 -1.125 1.125 0 0 Z " fill="#D75CF1" transform="translate(15,13)"/>
<path d="M0 0 C0.99 0.33 1.98 0.66 3 1 C2.34 2.32 1.68 3.64 1 5 C0.34 5 -0.32 5 -1 5 C-1.33 8.63 -1.66 12.26 -2 16 C-2.33 16 -2.66 16 -3 16 C-3.08133791 14.08404032 -3.13934367 12.16708068 -3.1875 10.25 C-3.22230469 9.18265625 -3.25710937 8.1153125 -3.29296875 7.015625 C-2.97082786 3.69972145 -2.22851086 2.40983327 0 0 Z " fill="#C7E2F6" transform="translate(133,27)"/>
<path d="M0 0 C1.32 0 2.64 0 4 0 C6.25 2.5 6.25 2.5 8 5 C7.01 5.33 6.02 5.66 5 6 C5 5.34 5 4.68 5 4 C4.34 4.66 3.68 5.32 3 6 C2.34 6.66 1.68 7.32 1 8 C-0.35439668 5.29120665 -0.06501451 2.99066732 0 0 Z " fill="#A94DEC" transform="translate(13,19)"/>
<path d="M0 0 C0.33 0 0.66 0 1 0 C1.33 2.97 1.66 5.94 2 9 C0.68 9.33 -0.64 9.66 -2 10 C-2.66 8.35 -3.32 6.7 -4 5 C-3.01 4.67 -2.02 4.34 -1 4 C-0.26676204 1.98491642 -0.26676204 1.98491642 0 0 Z " fill="#B450E7" transform="translate(51,45)"/>
<path d="M0 0 C1.65 0.33 3.3 0.66 5 1 C4.01 3.31 3.02 5.62 2 8 C0.4375 6.8125 0.4375 6.8125 -1 5 C-0.6875 2.3125 -0.6875 2.3125 0 0 Z " fill="#AD4EF2" transform="translate(36,41)"/>
<path d="M0 0 C2.475 0.495 2.475 0.495 5 1 C5 2.32 5 3.64 5 5 C3.35 5.33 1.7 5.66 0 6 C0 4.02 0 2.04 0 0 Z " fill="#412661" transform="translate(118,30)"/>
<path d="M0 0 C1.70884005 1.62339805 3.37446717 3.29319053 5 5 C5 5.66 5 6.32 5 7 C3.02 7 1.04 7 -1 7 C-0.67 4.69 -0.34 2.38 0 0 Z " fill="#E25EF2" transform="translate(44,48)"/>
<path d="M0 0 C0.66 0.33 1.32 0.66 2 1 C1.690625 1.53625 1.38125 2.0725 1.0625 2.625 C-0.17827439 5.3984957 -0.5909675 8.00042837 -1 11 C-1.33 11 -1.66 11 -2 11 C-2.144375 10.236875 -2.28875 9.47375 -2.4375 8.6875 C-2.9632594 5.91827092 -2.9632594 5.91827092 -4 3 C-2.68 2.01 -1.36 1.02 0 0 Z " fill="#E9E4DA" transform="translate(99,27)"/>
<path d="M0 0 C2.69082872 0.17635452 5.32851446 0.61835921 8 1 C8 1.66 8 2.32 8 3 C6.68 3 5.36 3 4 3 C3.67 3.66 3.34 4.32 3 5 C1.68 3.68 0.36 2.36 -1 1 C-0.67 0.67 -0.34 0.34 0 0 Z " fill="#D35BF3" transform="translate(47,40)"/>
<path d="M0 0 C2.0625 2.3125 2.0625 2.3125 4 5 C3.67 5.99 3.34 6.98 3 8 C1.35 7.67 -0.3 7.34 -2 7 C-1.34 6.67 -0.68 6.34 0 6 C0 4.02 0 2.04 0 0 Z " fill="#C858F1" transform="translate(16,46)"/>
<path d="M0 0 C1.32 0.33 2.64 0.66 4 1 C3.34 3.31 2.68 5.62 2 8 C1.34 8 0.68 8 0 8 C0 5.36 0 2.72 0 0 Z " fill="#D05BF4" transform="translate(41,46)"/>
<path d="M0 0 C2.31 0 4.62 0 7 0 C7 0.99 7 1.98 7 3 C5.02 3.99 5.02 3.99 3 5 C2.67 4.01 2.34 3.02 2 2 C1.34 2 0.68 2 0 2 C0 1.34 0 0.68 0 0 Z " fill="#C959F1" transform="translate(46,26)"/>
<path d="M0 0 C0.33 0.99 0.66 1.98 1 3 C0.67 3.33 0.34 3.66 0 4 C-0.04080783 5.99958364 -0.04254356 8.00045254 0 10 C-2.31 10 -4.62 10 -7 10 C-5.68 9.67 -4.36 9.34 -3 9 C-3.33 8.01 -3.66 7.02 -4 6 C-2.0625 2.8125 -2.0625 2.8125 0 0 Z " fill="#AD4AE9" transform="translate(38,16)"/>
<path d="M0 0 C2.97 0 5.94 0 9 0 C6 3 6 3 2.3125 3.1875 C0.6728125 3.0946875 0.6728125 3.0946875 -1 3 C-0.67 2.01 -0.34 1.02 0 0 Z " fill="#D25AF1" transform="translate(14,41)"/>
<path d="M0 0 C0 1.32 0 2.64 0 4 C-4.875 2.25 -4.875 2.25 -6 0 C-3.50907189 -1.24546405 -2.58919267 -0.7767578 0 0 Z " fill="#E360F3" transform="translate(26,30)"/>
<path d="M0 0 C0.66 0.33 1.32 0.66 2 1 C1.34 3.31 0.68 5.62 0 8 C-0.99 7.34 -1.98 6.68 -3 6 C-2.42655063 3.13275314 -2.1385485 2.1385485 0 0 Z " fill="#F2F5F2" transform="translate(205,28)"/>
<path d="M0 0 C0.66 0.33 1.32 0.66 2 1 C1.34 3.31 0.68 5.62 0 8 C-0.99 7.34 -1.98 6.68 -3 6 C-2.42655063 3.13275314 -2.1385485 2.1385485 0 0 Z " fill="#F2F5F2" transform="translate(81,28)"/>
<path d="M0 0 C4.75 0.75 4.75 0.75 7 3 C3.94736336 3.98120464 2.05263664 3.98120464 -1 3 C-0.67 2.01 -0.34 1.02 0 0 Z " fill="#AA4EF0" transform="translate(43,34)"/>
<path d="M0 0 C1.65 0 3.3 0 5 0 C3.625 2.5 3.625 2.5 2 5 C1.34 5 0.68 5 0 5 C0 3.35 0 1.7 0 0 Z " fill="#E963F6" transform="translate(44,12)"/>
<path d="M0 0 C1.65 0 3.3 0 5 0 C5 0.99 5 1.98 5 3 C3.02 3 1.04 3 -1 3 C-0.67 2.01 -0.34 1.02 0 0 Z " fill="#EFE8E8" transform="translate(223,27)"/>
<path d="M0 0 C0.66 0.33 1.32 0.66 2 1 C2 2.65 2 4.3 2 6 C1.01 6.33 0.02 6.66 -1 7 C-1.04254356 5.00045254 -1.04080783 2.99958364 -1 1 C-0.67 0.67 -0.34 0.34 0 0 Z " fill="#E060F7" transform="translate(53,14)"/>
</svg>
